<?xml version="1.0" standalone="no"?>
<!DOCTYPE svg PUBLIC "-//W3C//DTD SVG 20010904//EN"
 "http://www.w3.org/TR/2001/REC-SVG-20010904/DTD/svg10.dtd">
<svg version="1.0" xmlns="http://www.w3.org/2000/svg"
 width="320.000000pt" height="320.000000pt" viewBox="0 0 320.000000 320.000000"
 preserveAspectRatio="xMidYMid meet">
<metadata>
Created by potrace 1.11, written by Peter Selinger 2001-2013
</metadata>
<g transform="translate(0.000000,320.000000) scale(0.100000,-0.100000)"
fill="#000000" stroke="none">
<path d="M1477 3185 c-108 -23 -199 -78 -312 -186 l-102 -99 -115 0 c-149 0
-215 -13 -315 -61 -145 -70 -255 -196 -304 -349 -17 -53 -21 -91 -21 -205 l0
-140 -97 -100 c-147 -153 -201 -271 -201 -440 0 -181 48 -290 196 -445 l103
-106 -2 -125 c-1 -143 10 -203 61 -309 68 -144 223 -267 384 -305 38 -9 113
-15 187 -15 l124 0 101 -97 c155 -150 261 -197 441 -197 180 0 286 47 441 197
l101 97 124 0 c145 0 221 16 318 64 134 68 239 192 288 341 23 71 26 96 25
215 l0 135 88 90 c150 154 199 254 208 420 9 194 -41 316 -198 479 l-98 102 1
124 c0 71 -5 149 -12 180 -40 168 -156 314 -311 388 -103 49 -168 62 -318 62
l-115 0 -101 98 c-62 59 -125 110 -163 130 -123 65 -274 86 -406 57z m286
-223 c49 -23 87 -54 177 -145 l114 -117 156 0 c184 0 250 -14 330 -68 66 -45
111 -102 141 -179 20 -53 22 -74 20 -228 l-1 -170 118 -115 c157 -152 177
-191 177 -340 0 -148 -20 -187 -177 -340 l-118 -115 1 -170 c1 -152 -1 -176
-20 -226 -40 -104 -106 -174 -211 -222 -39 -18 -69 -21 -231 -25 l-187 -4
-112 -114 c-147 -149 -203 -179 -335 -179 -133 0 -190 30 -336 180 l-111 113
-187 4 c-179 3 -188 4 -242 31 -119 58 -198 162 -217 282 -5 33 -7 120 -4 194
l5 134 -120 116 c-158 153 -178 191 -178 341 0 149 20 188 178 341 l120 116
-5 134 c-3 74 -1 161 4 194 23 149 138 270 290 305 24 5 113 10 199 10 l155 0
115 118 c64 65 133 127 155 137 112 54 232 57 337 7z"/>
<path d="M1530 2486 c-126 -27 -229 -105 -282 -214 -30 -60 -33 -75 -33 -155
0 -85 1 -90 28 -113 21 -18 40 -24 73 -24 58 0 82 24 118 116 29 77 69 124
128 148 116 49 251 -22 277 -144 14 -66 14 -76 -4 -138 -19 -63 -53 -103 -159
-188 -131 -106 -176 -189 -176 -325 0 -110 44 -169 125 -169 52 0 105 81 105
161 0 55 48 125 133 192 118 94 162 143 199 222 29 62 33 82 36 172 5 119 -16
207 -69 286 -98 149 -296 218 -499 173z"/>
<path d="M1525 1181 c-77 -36 -115 -95 -115 -181 0 -60 13 -96 48 -134 137
-146 377 -24 340 173 -22 122 -161 194 -273 142z"/>
</g>
</svg>
